# xmcd CD database file
#
# Track frame offsets:
#	150
#	21654
#	50014
#	68622
#	101597
#	103931
#	136545
#	160873
#	163209
#	190230
#	193417
#
# Disc length: 2928 seconds
#
# Revision: 8
# Processed by: cddbd v1.4PL0 Copyright (c) Steve Scherf et al.
# Submitted via: CDex 1.50
#
DISCID=9e0b6e0b
DTITLE=Corciolli - The Art Of Seduction
DYEAR=2001
DGENRE=New Age
TTITLE0=Book Of Memories
TTITLE1=Hypnotize Me
TTITLE2=Safari
TTITLE3=Steam
TTITLE4=Little Love Games I
TTITLE5=Metamorphosis
TTITLE6=Lover In Dream
TTITLE7=Little Love Games II
TTITLE8=Flame
TTITLE9=Little Love Games III
TTITLE10=Mistérios
EXTD=YEAR: 2001
EXTT0=
EXTT1=
EXTT2=
EXTT3=
EXTT4=
EXTT5=
EXTT6=
EXTT7=
EXTT8=
EXTT9=
EXTT10=
PLAYORDER=
